<?xml version="1.0" standalone="no"?>
<!DOCTYPE svg PUBLIC "-//W3C//DTD SVG 20010904//EN"
 "http://www.w3.org/TR/2001/REC-SVG-20010904/DTD/svg10.dtd">
<svg version="1.0" xmlns="http://www.w3.org/2000/svg"
 width="160.000000pt" height="160.000000pt" viewBox="0 0 160.000000 160.000000"
 preserveAspectRatio="xMidYMid meet">
<metadata>
Created by potrace 1.11, written by Peter Selinger 2001-2013
</metadata>
<g transform="translate(0.000000,160.000000) scale(0.100000,-0.100000)"
fill="#000000" stroke="none">
<path d="M493 1175 c-12 -8 -30 -30 -42 -48 l-20 -33 -86 2 c-78 1 -93 -2
-144 -27 -79 -41 -151 -96 -151 -117 0 -30 64 -90 111 -103 24 -7 62 -26 83
-43 22 -17 78 -51 125 -76 l86 -46 -3 -59 c-6 -108 -11 -144 -25 -172 -23 -44
-80 -99 -128 -123 -24 -13 -47 -28 -51 -34 -17 -27 51 -31 104 -6 29 14 168
140 168 153 0 4 11 20 24 34 l24 26 7 -36 c11 -60 -2 -106 -36 -125 -16 -9
-29 -22 -29 -29 0 -6 -9 -15 -20 -18 -37 -12 -21 -23 29 -22 34 2 59 9 80 25
17 12 35 22 41 22 5 0 10 3 11 8 2 28 10 76 12 76 1 1 22 16 45 35 37 28 47
32 65 23 12 -6 32 -13 44 -17 13 -4 24 -17 28 -34 3 -16 15 -37 26 -47 28 -25
24 -30 -28 -33 -84 -4 -113 -16 -113 -48 0 -13 22 -14 148 -10 81 2 156 7 167
9 11 3 36 -1 56 -8 42 -14 128 -26 208 -29 30 -1 56 -6 58 -12 4 -12 -54 -84
-65 -81 -4 1 -16 -3 -28 -9 -11 -7 -55 -21 -98 -32 -69 -18 -99 -20 -269 -16
-106 3 -204 7 -220 9 -15 3 -55 7 -90 11 -34 4 -92 11 -128 16 -37 5 -91 11
-120 15 -30 3 -58 9 -63 12 -5 2 -7 -1 -4 -9 3 -8 13 -15 24 -17 10 -2 26 -6
34 -9 20 -8 25 -9 90 -18 30 -4 64 -9 75 -11 11 -2 38 -6 60 -10 22 -3 49 -7
60 -9 312 -48 483 -49 644 -3 109 32 171 100 171 188 0 15 7 33 16 41 19 16
58 93 69 134 14 60 15 71 15 155 0 279 -107 453 -321 524 -132 43 -303 29
-436 -37 -84 -42 -144 -22 -178 59 -8 21 -24 35 -45 43 -41 14 -41 14 -67 -4z"/>
</g>
</svg>
